<svg xmlns="http://www.w3.org/2000/svg" width="58" height="58" viewBox="0 0 58 58">
  <path id="Shape_846" data-name="Shape 846" d="M711.033,771.4a.965.965,0,0,1-.967-.964v-12.98l-10.781,10.78a25.619,25.619,0,0,1,2.3,2.905l.018-.019c.149.216.281.445.423.666l.1.165a26.01,26.01,0,1,1-7.311-7.6l-1.38,1.381a24.179,24.179,0,0,0-37.508,20.167c0,.347.037.686.052,1.032L668.011,774.9a.967.967,0,0,1,1.367,0l10.253,10.252,29.22-29.22H695.567a.966.966,0,1,1,0-1.933h15.467a.966.966,0,0,1,.967.966v15.467A.965.965,0,0,1,711.033,771.4Z" transform="translate(-654 -753.999)" fill="#add136"/>
</svg>
