<svg xmlns="http://www.w3.org/2000/svg" width="133.001" height="112.001" viewBox="0 0 133.001 112.001">
  <g id="Vector_Smart_Object" data-name="Vector Smart Object" transform="translate(-44.969 -42.471)">
    <g id="Group_9" data-name="Group 9">
      <g id="Group_8" data-name="Group 8">
        <g id="Group_1" data-name="Group 1">
          <path id="Path_1" data-name="Path 1" d="M63.186,136.018v10.495a1.76,1.76,0,0,0,1.843,1.494h63.424c1.221,0,1.992-.667,1.992-1.494V136.018Z" fill="#37919b"/>
          <path id="Path_2" data-name="Path 2" d="M125.45,83.174H68.311a5.1,5.1,0,0,0-5.125,5.076v39.736a5.1,5.1,0,0,0,5.125,5.076H125.45a5.1,5.1,0,0,0,5.125-5.076V88.249A5.1,5.1,0,0,0,125.45,83.174Z" fill="#37919b"/>
          <path id="Path_3" data-name="Path 3" d="M130.787,127.149l-62.476,0c-2.831,0-5.125.492-5.125,1.095v10.5l61.645-.215,5.652-.307Z" fill="#2c8484"/>
          <path id="Path_4" data-name="Path 4" d="M47.421,124.191l16.687,3.865,5.207-8.11S74.746,114.411,72,108.5a10.663,10.663,0,0,0-8.731-6.14L48.031,112.9Z" fill="#308a8e"/>
          <path id="Path_5" data-name="Path 5" d="M130.785,127.146v-7.2H69.315l-5.206,8.111Z" fill="#30898e"/>
          <path id="Path_6" data-name="Path 6" d="M64.259,119.722a9.647,9.647,0,1,0-13,8.838V151.8c0,3.556,13,3.556,13,0v-31.4c0-.078-.022-.153-.022-.231C64.243,120.028,64.259,119.875,64.259,119.722Z" fill="#37919b"/>
          <path id="Path_7" data-name="Path 7" d="M146.478,124.191l-16.689,3.865-5.206-8.11s-5.436-5.535-2.68-11.449a10.659,10.659,0,0,1,8.728-6.14L145.866,112.9Z" fill="#308a8e"/>
          <path id="Path_8" data-name="Path 8" d="M129.638,119.722a9.647,9.647,0,1,1,13,8.838V151.8c0,3.556-13,3.556-13,0v-31.4c0-.078.022-.153.022-.231C129.654,120.028,129.638,119.875,129.638,119.722Z" fill="#37919b"/>
        </g>
        <g id="Group_5" data-name="Group 5">
          <path id="Path_9" data-name="Path 9" d="M177.678,152l-13.557-7.19a1.006,1.006,0,0,0-.781-.383.987.987,0,0,0-.784.371L148.3,152.075a.989.989,0,0,0-.129,1.05,1,1,0,0,0,.9.566h27.893a.987.987,0,0,0,.709-1.688Z" fill="#6a7872"/>
          <g id="Group_4" data-name="Group 4">
            <g id="Group_2" data-name="Group 2">
              <path id="Path_10" data-name="Path 10" d="M163.514,150.118a1.828,1.828,0,0,1-1.835-1.822V69c.013-.239.681-9.363-5.13-15.6-3.716-3.986-9.33-6.006-16.689-6.006a1.819,1.819,0,1,1,0-3.639c8.442,0,14.975,2.423,19.416,7.209,6.9,7.43,6.107,17.75,6.072,18.189l.006,79.14A1.83,1.83,0,0,1,163.514,150.118Z" fill="#6a7872"/>
            </g>
            <g id="Group_3" data-name="Group 3">
              <path id="Path_11" data-name="Path 11" d="M163.514,118.249a3.171,3.171,0,0,0-3.185,3.155v25.262c.029.415,6.424.49,6.361-.264l.01-25A3.167,3.167,0,0,0,163.514,118.249Z" fill="#6a7872"/>
            </g>
          </g>
        </g>
        <g id="Group_6" data-name="Group 6">
          <path id="Path_12" data-name="Path 12" d="M165.2,149.47a1.722,1.722,0,1,1-1.722-1.706A1.716,1.716,0,0,1,165.2,149.47Z" fill="#9dc3c5"/>
          <path id="Path_13" data-name="Path 13" d="M164.613,149.47a1.134,1.134,0,1,1-1.136-1.125A1.131,1.131,0,0,1,164.613,149.47Z" fill="#8fb5b6"/>
        </g>
        <path id="Path_14" data-name="Path 14" d="M130.217,58.54a4.249,4.249,0,1,1-4.25-4.208A4.229,4.229,0,0,1,130.217,58.54Z" fill="#aed1d5" opacity="0.5"/>
        <g id="Group_7" data-name="Group 7">
          <path id="Path_15" data-name="Path 15" d="M137.135,67.543,139.8,45.75a.979.979,0,0,0-.286-.815.993.993,0,0,0-.819-.285l-22.528,2.517a1.007,1.007,0,0,0-.836.66.985.985,0,0,0,.247,1.033l19.849,19.384.006.008a1.009,1.009,0,0,0,1.416-.01A.992.992,0,0,0,137.135,67.543Z" fill="#aed1d5"/>
          <path id="Path_16" data-name="Path 16" d="M135.959,45.653a3.215,3.215,0,1,1,3.217,3.185A3.2,3.2,0,0,1,135.959,45.653Z" fill="#aed1d5"/>
        </g>
      </g>
    </g>
  </g>
</svg>
