<svg xmlns="http://www.w3.org/2000/svg" width="101.001" height="92.274" viewBox="0 0 101.001 92.274">
  <g id="Vector_Smart_Object" data-name="Vector Smart Object" transform="translate(-41.502 -42.361)">
    <g id="Group_26" data-name="Group 26">
      <g id="Group_25" data-name="Group 25">
        <g id="Group_24" data-name="Group 24">
          <path id="Path_17" data-name="Path 17" d="M141.7,122.526c0,5.732-1.358,5.622-7.421,5.622h-81.8c-6.066,0-10.983-4.647-10.983-10.379V69.05c0-5.732,4.917-10.383,10.983-10.383H133.7c6.066,0,8.008,2.055,8.008,7.787Z" fill="#525252"/>
          <path id="Path_18" data-name="Path 18" d="M139.568,120.8c0,5.732-1.665,5.622-7.47,5.622H54.15a10.449,10.449,0,0,1-10.514-10.379V71.715A10.45,10.45,0,0,1,54.15,61.335h78.632c5.807,0,6.786,2.629,6.786,8.361Z" fill="#444545"/>
          <g id="Group_13" data-name="Group 13">
            <g id="Group_11" data-name="Group 11">
              <g id="Group_10" data-name="Group 10">
                <rect id="Rectangle_1" data-name="Rectangle 1" width="30.113" height="68.931" transform="matrix(0.132, -0.991, 0.991, 0.132, 62.732, 87.176)" fill="#63bd6e"/>
                <path id="Path_19" data-name="Path 19" d="M130.727,94.784l-66.642-8.8L67.7,59.115l66.643,8.8Zm2.933-26.248L68.2,59.892l-3.43,25.477,65.466,8.641Z" fill="#117f4a"/>
                <path id="Path_20" data-name="Path 20" d="M110.986,78.506A11.875,11.875,0,1,0,97.645,88.613,11.789,11.789,0,0,0,110.986,78.506Z" fill="#117f4a"/>
              </g>
            </g>
            <g id="Group_12" data-name="Group 12">
              <path id="Path_21" data-name="Path 21" d="M97.6,86.656l.26-1.918a5.045,5.045,0,0,1-1.873-.9,3.825,3.825,0,0,1-1.1-1.663,6.084,6.084,0,0,1-.306-2.613l1.661-.132A5.49,5.49,0,0,0,96.6,81.78a2.283,2.283,0,0,0,1.472,1.347l.827-6.1a6.107,6.107,0,0,1-1.915-1.183,3.226,3.226,0,0,1-.99-1.561,4.962,4.962,0,0,1-.136-2.113,4.632,4.632,0,0,1,1.654-3.149,3.975,3.975,0,0,1,2.56-.724l.124-.916.952.127-.127.915a3.751,3.751,0,0,1,2.089,1.271,4.724,4.724,0,0,1,.9,3.043L102.3,72.8a3.614,3.614,0,0,0-.361-1.81,2.134,2.134,0,0,0-1.13-.959l-.745,5.53a9.787,9.787,0,0,1,1.535.779,3.848,3.848,0,0,1,1.087,1.12,4.072,4.072,0,0,1,.544,1.435,5.3,5.3,0,0,1,.035,1.7,5.239,5.239,0,0,1-1.512,3.191,3.648,3.648,0,0,1-2.939,1.052l-.26,1.939Zm2.26-16.769a2.323,2.323,0,0,0-1.6.711,3.1,3.1,0,0,0-.531,3.343,3.083,3.083,0,0,0,1.414,1.26ZM99.02,83.253a2.293,2.293,0,0,0,1.683-.766,3.444,3.444,0,0,0,.89-1.975,2.906,2.906,0,0,0-.206-1.733,3.642,3.642,0,0,0-1.578-1.362Z" fill="#63bd6e"/>
            </g>
          </g>
          <g id="Group_17" data-name="Group 17">
            <g id="Group_15" data-name="Group 15">
              <g id="Group_14" data-name="Group 14">
                <rect id="Rectangle_2" data-name="Rectangle 2" width="69.597" height="29.827" transform="translate(53.663 71.134) rotate(-24.42)" fill="#63bd6e"/>
                <path id="Path_22" data-name="Path 22" d="M127.842,69.039,66.618,96.565,55.307,71.887,116.528,44.36Zm-11.563-23.8L56.14,72.282,66.87,95.687l60.139-27.041Z" fill="#117f4a"/>
                <path id="Path_23" data-name="Path 23" d="M102.39,65.6a11.926,11.926,0,0,0-15.729-5.849,11.716,11.716,0,0,0-5.9,15.577,11.924,11.924,0,0,0,15.727,5.848A11.717,11.717,0,0,0,102.39,65.6Z" fill="#117f4a"/>
              </g>
            </g>
            <g id="Group_16" data-name="Group 16">
              <path id="Path_24" data-name="Path 24" d="M95.394,79.541l-.805-1.759a5.1,5.1,0,0,1-2.07.22,3.9,3.9,0,0,1-1.825-.834,6.247,6.247,0,0,1-1.655-2.057l1.336-.987a5.613,5.613,0,0,0,1.564,1.811,2.3,2.3,0,0,0,1.972.367l-2.57-5.6a6.183,6.183,0,0,1-2.252,0,3.289,3.289,0,0,1-1.675-.8,5.017,5.017,0,0,1-1.247-1.719,4.64,4.64,0,0,1-.284-3.543,3.92,3.92,0,0,1,1.784-1.957l-.384-.842.873-.393.387.842a3.79,3.79,0,0,1,2.446-.017,4.767,4.767,0,0,1,2.392,2.113l-1.41.948a3.744,3.744,0,0,0-1.278-1.345,2.137,2.137,0,0,0-1.471-.219l2.327,5.079a9.794,9.794,0,0,1,1.721-.145,3.9,3.9,0,0,1,1.523.38,4.143,4.143,0,0,1,1.228.927,5.271,5.271,0,0,1,.936,1.429,5.191,5.191,0,0,1,.428,3.5,3.615,3.615,0,0,1-1.93,2.436l.815,1.779Zm-7.06-15.4a2.292,2.292,0,0,0-.974,1.438,2.826,2.826,0,0,0,.226,1.8A2.881,2.881,0,0,0,88.7,68.7a3.139,3.139,0,0,0,1.873.325Zm6.452,11.77A2.256,2.256,0,0,0,95.8,74.378a3.419,3.419,0,0,0-.306-2.145,2.936,2.936,0,0,0-1.1-1.359,3.7,3.7,0,0,0-2.07-.325Z" fill="#63bd6e"/>
            </g>
          </g>
          <g id="Group_22" data-name="Group 22">
            <path id="Path_25" data-name="Path 25" d="M137.121,127.284c0,5.732-2.291,7.351-8.078,7.351H47.394c-5.787,0-5.892-.539-5.892-6.27V69.625s.066-1.406.137-2.28a8.879,8.879,0,0,1,1.609-3.918s.874,3.605,3.347,4.611a17.963,17.963,0,0,0,6.88,1.443h75.567c5.787,0,8.078.752,8.078,6.484Z" fill="#616161"/>
            <g id="Group_21" data-name="Group 21">
              <g id="Group_18" data-name="Group 18">
                <path id="Path_26" data-name="Path 26" d="M48.418,73.413h0l-5.387,0a1.334,1.334,0,1,1,0-2.668h0l5.387,0a1.334,1.334,0,1,1,0,2.668Z" fill="#717171"/>
              </g>
              <g id="Group_19" data-name="Group 19">
                <path id="Path_27" data-name="Path 27" d="M127.078,133.038H124.42a1.334,1.334,0,1,1,0-2.668h2.658c4.49,0,5.232-.388,5.619-1.815a1.346,1.346,0,0,1,2.6.69C134.275,133.038,130.779,133.038,127.078,133.038Zm-13.506,0H102.721a1.334,1.334,0,1,1,0-2.668h10.851a1.334,1.334,0,1,1,0,2.668Zm-21.7,0H81.021a1.334,1.334,0,1,1,0-2.668H91.872a1.334,1.334,0,1,1,0,2.668Zm-21.7,0H59.321a1.334,1.334,0,1,1,0-2.668H70.172a1.334,1.334,0,1,1,0,2.668Zm64.111-13.525a1.34,1.34,0,0,1-1.347-1.334V107.432a1.347,1.347,0,0,1,2.693,0v10.747A1.34,1.34,0,0,1,134.283,119.513Zm0-21.494a1.339,1.339,0,0,1-1.347-1.334V85.939a1.347,1.347,0,0,1,2.693,0V96.685A1.339,1.339,0,0,1,134.283,98.019Zm-.416-21.451a1.347,1.347,0,0,1-1.283-.932c-.381-1.2-1.038-2.189-5.213-2.189l-3,0a1.334,1.334,0,1,1,0-2.668h0l3,0c3.37,0,6.645.491,7.783,4.052a1.331,1.331,0,0,1-.878,1.674A1.367,1.367,0,0,1,133.867,76.568Zm-20.351-3.125h0l-10.851-.005a1.334,1.334,0,1,1,0-2.668h0l10.851.005a1.334,1.334,0,1,1,0,2.668Zm-21.7-.011h0l-10.851-.005a1.334,1.334,0,1,1,0-2.668h0l10.851.005a1.334,1.334,0,1,1,0,2.668Zm-21.7-.011h0l-10.849,0a1.334,1.334,0,1,1,0-2.668h0l10.849,0a1.334,1.334,0,1,1,0,2.668Z" fill="#717171"/>
              </g>
              <g id="Group_20" data-name="Group 20">
                <path id="Path_28" data-name="Path 28" d="M48.418,133.038H43.031a1.334,1.334,0,1,1,0-2.668h5.387a1.334,1.334,0,1,1,0,2.668Z" fill="#717171"/>
              </g>
            </g>
            <path id="Path_29" data-name="Path 29" d="M131.948,124.748c0,4.862-1.727,5.229-6.75,5.229H41.648V73.661l83.818.036c5.03,0,6.482,1.375,6.482,6.234Z" fill="#616161"/>
          </g>
          <g id="Group_23" data-name="Group 23">
            <path id="Path_30" data-name="Path 30" d="M141.886,104.292h-26.2c-1.693,0-4.855-3.005-4.855-9.073s3.162-8.9,4.855-8.9h26.2C142.756,86.317,142.661,104.292,141.886,104.292Z" fill="#727172"/>
            <path id="Path_31" data-name="Path 31" d="M141.886,105.734h-26.2c-1.693,0-4.855-3-4.855-9.072s3.162-8.9,4.855-8.9h26.2C142.756,87.758,142.661,105.734,141.886,105.734Z" fill="#575656"/>
            <path id="Path_32" data-name="Path 32" d="M122.494,96.8a3.457,3.457,0,1,1-3.419-3.964A3.721,3.721,0,0,1,122.494,96.8Z" fill="#d6cb78"/>
            <path id="Path_33" data-name="Path 33" d="M121.829,96.8a2.785,2.785,0,1,1-2.754-3.2A3,3,0,0,1,121.829,96.8Z" fill="#ece17e"/>
          </g>
        </g>
      </g>
    </g>
  </g>
</svg>
